<?xml version="1.0" encoding="UTF-8"?>
<svg
  xmlns="http://www.w3.org/2000/svg"
  width="256"
  height="256"
  viewBox="0 0 256 256"
  role="img"
  aria-label="SATORI Studio Pro canonical mark">

  <!-- Outer frame -->
  <path
    fill="#77787B"
    d="M0.21,256.08c0-68.7,0-137.39,0-206.09c0.06-0.15,0.15-0.29,0.17-0.44
       c0.3-2.44,0.47-4.9,0.91-7.31c2.23-12.17,7.9-22.33,17.76-29.97
       c8.27-6.41,17.77-9.84,28.02-11.42c1.4-0.22,2.79-0.42,4.19-0.64
       c68.27,0,136.55,0,204.82,0c0,67.26,0,134.52,0,201.78
       c-0.43,3.73-0.62,7.5-1.34,11.17c-2.04,10.49-6.79,19.58-14.8,26.76
       c-11.05,9.89-24.3,14.7-38.9,14.74
       c-66.6,0.2-133.21,0.09-199.81,0.09c-0.35,0-0.7-0.02-1.05-0.03z"/>

  <!-- Inner panel -->
  <path
    fill="#BEBEBE"
    d="M17.74,238.57c0-0.61,0-1.03,0-1.45
       c0-60.96-0.01-121.92,0.01-182.88
       c0-5.8,0.82-11.48,3.22-16.84
       c3.49-7.8,9.52-12.9,17.3-16.09
       c5.85-2.39,11.93-3.58,18.27-3.58
       c60.15,0,120.3,0,180.45,0
       c0.48,0,0.97,0,1.58,0
       c0,61.03,0,122.06,0,183.09
       c0,6.25-1.14,12.3-4.03,17.92
       c-3.9,7.58-10.21,12.38-18.01,15.37
       c-5.72,2.19-11.65,3.26-17.81,3.26
       c-59.8-0.04-119.6-0.02-179.4-0.02
       c-0.48,0-0.96,0-1.56,0z"/>

  <!-- SP glyphs -->
  <path
    fill="#FFFFFF"
    d="M58.06,177.56c8,4.2,20.8,8.4,33.8,8.4
       c14,0,21.4-5.8,21.4-14.8
       c0-8.2-6.4-13.2-22.6-18.8
       c-22.4-8-37.2-20.4-37.2-40.2
       c0-23,19.4-40.4,51-40.4
       c15.4,0,26.4,3,34.4,6.8
       l-6.8,24.4c-5.2-2.6-15-6.4-28-6.4
       c-13.2,0-19.6,6.2-19.6,13
       c0,8.6,7.4,12.4,25,19.2
       c23.8,8.8,34.8,21.2,34.8,40.4
       c0,22.6-17.2,41.8-54.2,41.8
       c-15.4,0-30.6-4.2-38.2-8.4
       l6.2-25z"/>

  <path
    fill="#FFFFFF"
    d="M159.37,92.79c8.2-1.4,19.7-2.44,35.93-2.44
       c16.39,0,28.25,3.14,36.1,9.59
       c7.5,5.76,12.38,15.52,12.38,27.03
       c0,11.68-3.66,21.45-10.64,27.9
       c-9.07,8.37-22.67,12.38-38.37,12.38
       c-3.49,0-6.63-0.17-9.07-0.7
       v42.2h-26.33V92.79z

       M185.7,146.15c2.27,0.52,5.06,0.7,8.89,0.7
       c14.13,0,22.85-7.15,22.85-19.01
       c0-10.81-7.32-17.27-20.75-17.27
       c-5.41,0-9.07,0.35-10.99,0.87
       v34.71z"/>
</svg>
