<?xml version="1.0" encoding="UTF-8"?>
<svg xmlns="http://www.w3.org/2000/svg"
     width="256"
     height="256"
     viewBox="0 0 256 256"
     role="img"
     aria-label="SATORI Studio Pro canonical mark">

  <!-- Outer frame (master-derived, locked) -->
  <path
    d="M0.210938,256.078125c0-68.695312,0-137.390625,0-206.085938c0.058008-0.146777,0.151172-0.290918,0.170508-0.442969
       c0.302344-2.436328,0.470215-4.897266,0.911426-7.307227
       c2.225391-12.16582,7.896094-22.333887,17.755664-29.97334
       c8.267871-6.407227,17.773242-9.839355,28.02041-11.421387
       c1.395703-0.215332,2.793164-0.423633,4.189746-0.635449
       c68.273438,0,136.545996,0,204.820312,0c0,67.258301,0,134.518359,0.001758,201.77666
       c0,0.456152,0.022852,0.911426,0.035156,1.367578
       c-0.430664,3.725684-0.624902,7.49707-1.338574,11.167383
       c-2.038184,10.485352-6.786035,19.580273-14.799902,26.756543
       c-11.04873,9.893848-24.296484,14.69707-38.899512,14.741016
       c-66.603516,0.204785-133.208789,0.090527-199.814063,0.08877
       c-0.35332-0.000879-0.704004-0.021094-1.054688-0.03252z"
    fill="#77787B"/>

  <!-- Inner panel (master-derived, locked) -->
  <path
    d="M17.74248,238.570312c0-0.609082,0-1.030078,0-1.449316
       c0-60.95918-0.007031-121.918359,0.011426-182.877539
       c0.001758-5.803418,0.821777-11.48291,3.217676-16.839844
       c3.491895-7.803809,9.521191-12.903223,17.30127-16.086621
       c5.847363-2.392383,11.93291-3.585059,18.268066-3.583301
       c60.150586,0.014063,120.300293,0.00791,180.450879,0.00791
       c0.484277,0,0.968555,0,1.579395,0
       c0,0.47373,0,0.848145,0,1.222559
       c0,61.029492,0.009668,122.058984-0.014941,183.087598
       c-0.002637,6.250781-1.139941,12.295898-4.028906,17.915625
       c-3.899707,7.583203-10.21377,12.375879-18.014062,15.368555
       c-5.722559,2.194629-11.649902,3.258984-17.812793,3.255469
       c-59.798145-0.035156-119.597168-0.021094-179.396191-0.021094
       c-0.479004,0-0.962402,0-1.561816,0z"
    fill="#BEBEBE"/>

  <!-- SP glyphs (scaled from 291.36 → 256, baked paths) -->
  <path
    fill="#FFFFFF"
    d="M51.02,155.69c7.03,3.69,18.28,7.38,29.71,7.38
       c12.31,0,18.82-5.09,18.82-13.01
       c0-7.21-5.63-11.6-19.88-16.53
       c-19.71-7.03-32.74-17.93-32.74-35.37
       c0-20.21,17.05-35.53,44.87-35.53
       c13.53,0,23.19,2.64,30.22,5.98
       l-5.98,21.44
       c-4.57-2.28-13.19-5.63-24.61-5.63
       c-11.6,0-17.22,5.45-17.22,11.42
       c0,7.56,6.51,10.89,21.97,16.87
       c20.92,7.73,30.57,18.63,30.57,35.53
       c0,19.88-15.12,36.76-47.63,36.76
       c-13.53,0-26.88-3.69-33.56-7.38
       z"/>

  <path
    fill="#FFFFFF"
    d="M139.9,74.02
       c7.2-1.22,17.46-2.14,31.8-2.14
       c14.52,0,24.83,2.76,31.75,8.46
       c6.6,5.07,10.89,13.67,10.89,23.79
       c0,10.28-3.22,18.89-9.38,24.57
       c-7.99,7.38-20.03,10.89-33.92,10.89
       c-3.08,0-5.86-0.15-7.99-0.61
       v37.15h-23.17z"/>
</svg>

