<svg xmlns="http://www.w3.org/2000/svg" width="256" height="256" viewBox="0 0 256 256" role="img" aria-label="SATORI Studio Lite canonical mark">
  <path
    d="M0.210938,256.078125c0-68.695312,0-137.390625,0-206.085938c0.058008-0.146777,0.151172-0.290918,0.170508-0.442969c0.302344-2.436328,0.470215-4.897266,0.911426-7.307227
       c2.225391-12.16582,7.896094-22.333887,17.755664-29.97334c8.267871-6.407227,17.773242-9.839355,28.02041-11.421387c1.395703-0.215332,2.793164-0.423633,4.189746-0.635449
       c68.273438,0,136.545996,0,204.820312,0c0,67.258301,0,134.518359,0.001758,201.77666c0,0.456152,0.022852,0.911426,0.035156,1.367578
       c-0.430664,3.725684-0.624902,7.49707-1.338574,11.167383c-2.038184,10.485352-6.786035,19.580273-14.799902,26.756543c-11.04873,9.893848-24.296484,14.69707-38.899512,14.741016
       c-66.603516,0.204785-133.208789,0.090527-199.814063,0.08877c-0.35332-0.000879-0.704004-0.021094-1.054688-0.03252z"
    fill="#77787B"/>
  <path
    d="M17.74248,238.570312c0-0.609082,0-1.030078,0-1.449316c0-60.95918-0.007031-121.918359,0.011426-182.877539c0.001758-5.803418,0.821777-11.48291,3.217676-16.839844
       c3.491895-7.803809,9.521191-12.903223,17.30127-16.086621c5.847363-2.392383,11.93291-3.585059,18.268066-3.583301c60.150586,0.014063,120.300293,0.00791,180.450879,0.00791
       c0.484277,0,0.968555,0,1.579395,0c0,0.47373,0,0.848145,0,1.222559c0,61.029492,0.009668,122.058984-0.014941,183.087598
       c-0.002637,6.250781-1.139941,12.295898-4.028906,17.915625c-3.899707,7.583203-10.21377,12.375879-18.014062,15.368555c-5.722559,2.194629-11.649902,3.258984-17.812793,3.255469
       c-59.798145-0.035156-119.597168-0.021094-179.396191-0.021094c-0.479004,0-0.962402,0-1.561816,0z"
    fill="#BEBEBE"/>
  <path
    d="M56.690332,156.066504c-0.232031,0.908789-0.511523,1.987207-0.780469,3.066504c-1.51875,6.089941-3.042773,12.178125-4.520215,18.277734
       c-0.062402,0.258398,0.244336,0.776953,0.512402,0.914062c1.267383,0.650391,2.549707,1.291113,3.882129,1.789453c8.374219,3.135059,17.049023,4.77334,25.978711,5.058984
       c5.176758,0.165234,10.34209,0.019336,15.467871-0.829687c4.473633-0.741797,8.85498-1.821094,13.046484-3.58418c8.233594-3.462012,14.870215-8.744238,18.917578-16.874121
       c3.25459-6.537305,4.063184-13.455176,3.114844-20.666602c-0.824414-6.26748-3.408398-11.669238-7.614844-16.303711c-3.966504-4.369922-8.811035-7.632422-14.127539-10.053809
       c-6.152344-2.802832-12.505957-5.161816-18.721582-7.829297c-3.360059-1.442285-6.641895-3.068262-9.218848-5.806934c-3.612305-3.839941-3.616699-9.79541,0.137109-13.52373
       c3.284473-3.2625,7.496191-4.297852,11.938184-4.474512c2.509277-0.099316,5.030859,0.13623,7.547168,0.20127c3.890039,0.099316,7.651758,0.929004,11.332617,2.098828
       c2.794922,0.888574,5.530078,1.965234,8.363672,2.984766c0.059766-0.16084,0.159082-0.373535,0.220605-0.596777c0.694336-2.479395,1.38252-4.960547,2.071582-7.441699
       c1.184766-4.264453,2.380078-8.525391,3.527051-12.799512c0.065918-0.246094-0.179297-0.766406-0.408691-0.870117c-1.357031-0.611719-2.733398-1.192676-4.13877-1.683984
       c-7.14375-2.495215-14.532715-3.749414-22.071094-3.984082c-3.626367-0.1125-7.27207,0.122168-10.898438,0.360352c-4.614258,0.304102-9.08877,1.353516-13.42002,2.98125
       c-6.839648,2.57168-12.84082,6.37207-17.286328,12.274805c-5.929102,7.873242-7.967285,16.751074-6.080273,26.393555c1.275293,6.51709,4.70127,11.893359,9.646875,16.342383
       c3.276563,2.947852,6.91875,5.316504,10.772754,7.404785c5.997656,3.247559,12.614941,4.997461,18.798926,7.787109c3.331934,1.503809,6.568066,3.136816,9.230273,5.78584
       c3.016406,3.001465,3.68877,6.570703,2.992676,10.52666c-0.647754,3.681738-3.025195,6.075879-6.225293,7.751953c-3.472559,1.819336-7.268555,2.335254-11.093555,2.477637
       c-2.430176,0.091406-4.880566-0.185449-7.314258-0.384082c-4.271484-0.348047-8.440137-1.290234-12.491016-2.63584
       C64.063477,158.968652,60.432715,157.474512,56.690332,156.066504z"
    fill="#FFFFFF"/>
  <path
    d="M208.357031,164.311523c-13.397168,0-26.667773,0-40.044727,0c0-27.169629,0-54.24873,0-81.347168c-7.642969,0-15.17959,0-22.728516,0
       c0,33.542578,0,67.018359,0,100.514355c20.961914,0,41.852637,0,62.774121,0
       C208.357031,177.095215,208.357031,170.783789,208.357031,164.311523z"
    fill="#FFFFFF"/>
</svg>
