<?xml version="1.0" encoding="UTF-8"?>
<svg xmlns="http://www.w3.org/2000/svg"
     width="256"
     height="256"
     viewBox="0 0 256 256"
     role="img"
     aria-label="SATORI Studio master mark">

  <g transform="scale(0.87890625)">

    <!-- Outer frame -->
    <path
      d="M0.24,291.36c0-78.16,0-156.32,0-234.48c0.066-0.167,0.172-0.331,0.194-0.504c0.344-2.772,0.535-5.572,1.037-8.314
         c2.532-13.842,8.984-25.411,20.202-34.103c9.407-7.29,20.222-11.195,31.881-12.995c1.588-0.245,3.178-0.482,4.767-0.723
         c77.68,0,155.359,0,233.04,0c0,76.525,0,153.052,0.002,229.577c0,0.519,0.026,1.037,0.04,1.556
         c-0.49,4.239-0.711,8.53-1.523,12.706c-2.319,11.93-7.721,22.278-16.839,30.443c-12.571,11.257-27.644,16.722-44.259,16.772
         c-75.78,0.233-151.562,0.103-227.344,0.101c-0.402-0.001-0.801-0.024-1.2-0.037z"
      fill="#77787B"/>

    <!-- Inner panel -->
    <path
      d="M20.187,271.44c0-0.693,0-1.172,0-1.649c0-69.358-0.008-138.716,0.013-208.074c0.002-6.603,0.935-13.065,3.661-19.16
         c3.973-8.879,10.833-14.681,19.685-18.303c6.653-2.722,13.577-4.079,20.785-4.077c68.438,0.016,136.875,0.009,205.313,0.009
         c0.551,0,1.102,0,1.797,0c0,0.539,0,0.965,0,1.391c0,69.438,0.011,138.876-0.017,208.313
         c-0.003,7.112-1.297,13.99-4.584,20.384c-4.437,8.628-11.621,14.081-20.496,17.486c-6.511,2.497-13.255,3.708-20.267,3.704
         c-68.037-0.04-136.075-0.024-204.113-0.024c-0.545,0-1.095,0-1.777,0z"
      fill="#BEBEBE"/>

    <!-- SL glyphs (authoritative reference) -->
    <path
      d="M64.501,177.569c-0.264,1.034-0.582,2.261-0.888,3.489c-1.728,6.929-3.462,13.856-5.143,20.796
         c-0.071,0.294,0.278,0.884,0.583,1.04c1.442,0.74,2.901,1.469,4.417,2.036c9.528,3.567,19.398,5.431,29.558,5.756
         c5.89,0.188,11.767,0.022,17.599-0.944c5.09-0.844,10.075-2.072,14.844-4.078c9.368-3.939,16.919-9.949,21.524-19.199
         c3.703-7.438,4.623-15.309,3.544-23.514c-0.938-7.131-3.878-13.277-8.664-18.55c-4.513-4.972-10.025-8.684-16.074-11.439
         c-7-3.189-14.229-5.873-21.301-8.908c-3.823-1.641-7.557-3.491-10.489-6.607c-4.11-4.369-4.115-11.145,0.156-15.387
         c3.737-3.712,8.529-4.89,13.583-5.091c2.855-0.113,5.724,0.155,8.587,0.229c4.426,0.113,8.706,1.057,12.894,2.388
         c3.18,1.011,6.292,2.236,9.516,3.396c0.068-0.183,0.181-0.425,0.251-0.679c0.79-2.821,1.573-5.644,2.357-8.467
         c1.348-4.852,2.708-9.7,4.013-14.563c0.075-0.28-0.204-0.872-0.465-0.99c-1.544-0.696-3.11-1.357-4.709-1.916
         c-8.128-2.839-16.535-4.266-25.112-4.533c-4.126-0.128-8.274,0.139-12.4,0.41c-5.25,0.346-10.341,1.54-15.269,3.392
         c-7.782,2.926-14.61,7.25-19.668,13.966c-6.746,8.958-9.065,19.059-6.918,30.03c1.451,7.415,5.349,13.532,10.976,18.594
         c3.728,3.354,7.872,6.049,12.257,8.425c6.824,3.695,14.353,5.686,21.389,8.86c3.791,1.711,7.473,3.569,10.502,6.583
         c3.432,3.415,4.197,7.476,3.405,11.977c-0.737,4.189-3.442,6.913-7.083,8.82c-3.951,2.07-8.27,2.657-12.622,2.819
         c-2.765,0.104-5.553-0.211-8.322-0.437c-4.86-0.396-9.603-1.468-14.212-2.999
         C72.89,180.871,68.759,179.171,64.501,177.569z"
      fill="#FFFFFF"/>

    <path
      d="M237.064,186.95c-15.243,0-30.342,0-45.562,0c0-30.913,0-61.723,0-92.555c-8.696,0-17.271,0-25.86,0
         c0,38.164,0,76.252,0,114.363c23.85,0,47.619,0,71.423,0
         C237.064,201.495,237.064,194.314,237.064,186.95z"
      fill="#FFFFFF"/>

  </g>
</svg>
