<svg xmlns="http://www.w3.org/2000/svg" width="256" height="256" viewBox="0 0 256 256" role="img" aria-label="SATORI Studio SL canonical mark">
  <path fill="#000000" d="M 0 56.32 A 56.32 56.32 0 0 1 56.32 0 H 256 V 199.68 A 56.32 56.32 0 0 1 199.68 256 H 0 V 56.32 Z"/>
  <path fill="#7A7A7A" d="M 10.24 56.32 A 46.08 46.08 0 0 1 56.32 10.24 H 245.76 V 199.68 A 46.08 46.08 0 0 1 199.68 245.76 H 10.24 V 56.32 Z"/>
  <g fill="#FFFFFF">
    <path d="M 36.9 58 H 128.9 V 76 H 36.9 Z M 36.9 119 H 128.9 V 137 H 36.9 Z M 36.9 180 H 128.9 V 198 H 36.9 Z M 36.9 58 H 54.9 V 128 H 36.9 Z M 110.9 128 H 128.9 V 198 H 110.9 Z"/>
    <path d="M 140.9 79 H 156.2 V 198 H 140.9 Z M 140.9 182.7 H 219.1 V 198 H 140.9 Z"/>
  </g>
</svg>
