<svg xmlns="http://www.w3.org/2000/svg" width="256" height="256" viewBox="0 0 256 256" role="img" aria-label="SATORI Studio Pro canonical mark">
  <path
    d="M0.210938,256.078125c0-68.695312,0-137.390625,0-206.085938c0.058008-0.146777,0.151172-0.290918,0.170508-0.442969c0.302344-2.436328,0.470215-4.897266,0.911426-7.307227
       c2.225391-12.16582,7.896094-22.333887,17.755664-29.97334c8.267871-6.407227,17.773242-9.839355,28.02041-11.421387c1.395703-0.215332,2.793164-0.423633,4.189746-0.635449
       c68.273438,0,136.545996,0,204.820312,0c0,67.258301,0,134.518359,0.001758,201.77666c0,0.456152,0.022852,0.911426,0.035156,1.367578
       c-0.430664,3.725684-0.624902,7.49707-1.338574,11.167383c-2.038184,10.485352-6.786035,19.580273-14.799902,26.756543c-11.04873,9.893848-24.296484,14.69707-38.899512,14.741016
       c-66.603516,0.204785-133.208789,0.090527-199.814063,0.08877c-0.35332-0.000879-0.704004-0.021094-1.054688-0.03252z"
    fill="#77787B"/>
  <path
    d="M17.74248,238.570312c0-0.609082,0-1.030078,0-1.449316c0-60.95918-0.007031-121.918359,0.011426-182.877539c0.001758-5.803418,0.821777-11.48291,3.217676-16.839844
       c3.491895-7.803809,9.521191-12.903223,17.30127-16.086621c5.847363-2.392383,11.93291-3.585059,18.268066-3.583301c60.150586,0.014063,120.300293,0.00791,180.450879,0.00791
       c0.484277,0,0.968555,0,1.579395,0c0,0.47373,0,0.848145,0,1.222559c0,61.029492,0.009668,122.058984-0.014941,183.087598
       c-0.002637,6.250781-1.139941,12.295898-4.028906,17.915625c-3.899707,7.583203-10.21377,12.375879-18.014062,15.368555c-5.722559,2.194629-11.649902,3.258984-17.812793,3.255469
       c-59.798145-0.035156-119.597168-0.021094-179.396191-0.021094c-0.479004,0-0.962402,0-1.561816,0z"
    fill="#BEBEBE"/>
  <g fill="#FFFFFF">
    <g transform="translate(36.9 58)">
      <path d="M 0 0 H 92 V 18 H 0 Z M 0 61 H 92 V 79 H 0 Z M 0 122 H 92 V 140 H 0 Z M 0 0 H 18 V 70 H 0 Z M 74 70 H 92 V 140 H 74 Z"/>
    </g>
    <g transform="translate(140.9 79)">
      <path d="M 0 0 H 15.3 V 119 H 0 Z M 0 0 H 78.2 V 15.3 H 0 Z M 0 51.85 H 78.2 V 67.15 H 0 Z M 62.9 0 H 78.2 V 59.5 H 62.9 Z"/>
    </g>
  </g>
</svg>
