<svg xmlns="http://www.w3.org/2000/svg" width="20" height="20" viewBox="0 0 20 20" role="img" aria-label="SATORI Studio menu mark"><path d="M0.01648,20.006104c0-5.366821,0-10.733643,0-16.100464c0.004532-0.011467,0.01181-0.022728,0.013321-0.034607c0.023621-0.190338,0.036736-0.382599,0.071205-0.570877        c0.173859-0.950455,0.616882-1.744835,1.387161-2.341667c0.645927-0.500565,1.388535-0.7687,2.189095-0.892296c0.109039-0.016823,0.218216-0.033096,0.327324-0.049644        c5.333862,0,10.667656,0,16.001587,0c0,5.254555,0,10.509247,0.000137,15.763802c0,0.035637,0.001785,0.071205,0.002747,0.106842        c-0.033646,0.291069-0.04882,0.585709-0.104576,0.872452c-0.159233,0.819168-0.530159,1.529709-1.156242,2.090355c-0.863182,0.772957-1.898163,1.148209-3.039024,1.151642        c-5.2034,0.015999-10.406937,0.007072-15.610474,0.006935c-0.027603-0.000069-0.055-0.001648-0.082398-0.002541z" fill="#77787B" /><path d="M1.386131,18.638306c0-0.047585,0-0.080475,0-0.113228c0-4.762436-0.000549-9.524872,0.000893-14.287308c0.000137-0.453392,0.064201-0.897102,0.251381-1.315613        c0.272804-0.609673,0.743843-1.008064,1.351662-1.256767c0.456825-0.186905,0.932259-0.280083,1.427193-0.279945c4.699265,0.001099,9.39846,0.000618,14.097725,0.000618        c0.037834,0,0.075668,0,0.12339,0c0,0.03701,0,0.066261,0,0.095512c0,4.767929,0.000755,9.535858-0.001167,14.303719        c-0.000206,0.488342-0.089058,0.960617-0.314758,1.399658c-0.304665,0.592438-0.797951,0.966866-1.407349,1.200668c-0.447075,0.171455-0.910149,0.254608-1.391624,0.254334        c-4.67173-0.002747-9.343529-0.001648-14.015327-0.001648c-0.037422,0-0.075188,0-0.122017,0z" fill="#BEBEBE" /><path d="M 2.882812 4.53125 H 10.070312 V 5.9375 H 2.882812 Z M 2.882812 9.296875 H 10.070312 V 10.703125 H 2.882812 Z M 2.882812 14.0625 H 10.070312 V 15.46875 H 2.882812 Z M 2.882812 4.53125 H 4.289062 V 10 H 2.882812 Z M 8.664062 10 H 10.070312 V 15.46875 H 8.664062 Z" fill="#000000" /><path d="M 11.007812 6.171875 H 12.203125 V 15.46875 H 11.007812 Z M 11.007812 14.273438 H 17.117188 V 15.46875 H 11.007812 Z" fill="#000000" /></svg>