<svg xmlns="http://www.w3.org/2000/svg" width="20" height="20" viewBox="0 0 20 20" role="img" aria-label="SATORI Studio menu icon">
  <mask id="satori-menu-icon-mask" maskUnits="userSpaceOnUse" x="0" y="0" width="20" height="20">
    <rect width="20" height="20" fill="#ffffff"/>
    <g fill="#000000">
      <g transform="translate(3.1675 4.75) scale(0.075)">
        <path d="M 0 0 H 92 V 18 H 0 Z M 0 61 H 92 V 79 H 0 Z M 0 122 H 92 V 140 H 0 Z M 0 0 H 18 V 70 H 0 Z M 74 70 H 92 V 140 H 74 Z"/>
      </g>
      <g transform="translate(10.9675 6.325) scale(0.075)">
        <path d="M 0 0 H 15.3 V 119 H 0 Z M 0 103.7 H 78.2 V 119 H 0 Z"/>
      </g>
    </g>
  </mask>
  <path fill="currentColor" d="M 0 4.4 A 4.4 4.4 0 0 1 4.4 0 H 20 V 15.6 A 4.4 4.4 0 0 1 15.6 20 H 0 V 4.4 Z" mask="url(#satori-menu-icon-mask)"/>
</svg>
