<?xml version="1.0" encoding="UTF-8"?>
<svg version="1.1" id="Layer_1" xmlns="http://www.w3.org/2000/svg" xmlns:xlink="http://www.w3.org/1999/xlink" x="0px" y="0px"
	 width="256px" height="256px" viewBox="0 0 256 256" enable-background="new 0 0 256 256" xml:space="preserve">
<g>
	<path fill="#77787B" d="M0.211,256.078c0-68.695,0-137.391,0-206.086c0.058-0.147,0.151-0.291,0.17-0.443
		c0.302-2.437,0.47-4.897,0.912-7.307c2.225-12.166,7.896-22.334,17.755-29.974c8.268-6.407,17.773-9.839,28.021-11.421
		c1.396-0.215,2.793-0.423,4.19-0.635c68.273,0,136.546,0,204.82,0c0,67.258,0,134.519,0.001,201.776
		c0,0.456,0.023,0.912,0.035,1.367c-0.43,3.727-0.624,7.498-1.338,11.168c-2.038,10.485-6.786,19.58-14.8,26.756
		c-11.049,9.895-24.296,14.697-38.899,14.742c-66.604,0.204-133.209,0.09-199.814,0.088c-0.353,0-0.704-0.021-1.055-0.032
		L0.211,256.078z"/>
	<path fill="#BEBEBE" d="M17.743,238.57c0-0.609,0-1.03,0-1.449c0-60.959-0.007-121.918,0.011-182.877
		c0.002-5.804,0.822-11.483,3.218-16.84C24.463,29.6,30.493,24.5,38.273,21.317c5.847-2.392,11.933-3.585,18.268-3.583
		c60.15,0.014,120.301,0.008,180.451,0.008c0.484,0,0.969,0,1.579,0c0,0.474,0,0.848,0,1.223c0,61.029,0.01,122.059-0.015,183.087
		c-0.003,6.251-1.141,12.296-4.029,17.915c-3.9,7.584-10.214,12.377-18.014,15.369c-5.723,2.195-11.65,3.259-17.812,3.256
		c-59.799-0.035-119.598-0.021-179.397-0.021C18.825,238.57,18.342,238.57,17.743,238.57L17.743,238.57z"/>
	<path fill="#FFFFFF" d="M54.821,156.066c-0.232,0.908-0.512,1.987-0.781,3.066c-1.519,6.09-3.042,12.178-4.52,18.277
		c-0.062,0.259,0.244,0.777,0.512,0.914c1.268,0.65,2.55,1.291,3.883,1.79c8.374,3.136,17.049,4.773,25.979,5.06
		c5.177,0.164,10.342,0.019,15.468-0.83c4.474-0.742,8.855-1.821,13.047-3.584c8.233-3.463,14.87-8.744,18.918-16.875
		c3.254-6.537,4.062-13.455,3.114-20.666c-0.824-6.268-3.408-11.67-7.615-16.304c-3.966-4.37-8.811-7.633-14.127-10.054
		c-6.152-2.803-12.506-5.162-18.722-7.83c-3.36-1.442-6.643-3.068-9.219-5.807c-3.612-3.84-3.617-9.795,0.137-13.524
		c3.284-3.263,7.496-4.298,11.938-4.475c2.509-0.099,5.03,0.136,7.547,0.201c3.89,0.1,7.651,0.929,11.333,2.099
		c2.795,0.889,5.529,1.965,8.363,2.985c0.06-0.161,0.159-0.374,0.221-0.597c0.694-2.479,1.383-4.96,2.071-7.441
		c1.185-4.265,2.38-8.525,3.527-12.8c0.065-0.246-0.18-0.766-0.409-0.87c-1.356-0.612-2.733-1.192-4.139-1.684
		c-7.144-2.495-14.532-3.749-22.07-3.984c-3.627-0.112-7.272,0.122-10.898,0.36c-4.614,0.304-9.089,1.354-13.421,2.981
		c-6.839,2.572-12.841,6.372-17.286,12.275c-5.929,7.873-7.967,16.751-6.08,26.394c1.275,6.517,4.701,11.893,9.646,16.342
		c3.277,2.948,6.919,5.316,10.773,7.405c5.997,3.248,12.614,4.998,18.799,7.787c3.332,1.504,6.568,3.137,9.23,5.785
		c3.016,3.002,3.688,6.571,2.992,10.527c-0.647,3.682-3.025,6.076-6.226,7.752c-3.472,1.819-7.269,2.335-11.093,2.478
		c-2.431,0.091-4.881-0.186-7.314-0.384c-4.271-0.348-8.44-1.291-12.491-2.637C62.194,158.969,58.563,157.475,54.821,156.066z"/>
	<g>
		<path fill="#FFFFFF" d="M143.715,85.793c6.905-1.175,16.6-2.057,30.261-2.057c13.809,0,23.798,2.645,30.409,8.079
			c6.315,4.848,10.428,13.074,10.428,22.77c0,9.841-3.085,18.068-8.961,23.503c-7.639,7.051-19.096,10.43-32.316,10.43
			c-2.938,0-5.582-0.146-7.638-0.588v35.549h-22.183V85.793z M165.897,130.743c1.909,0.44,4.259,0.587,7.491,0.587
			c11.898,0,19.242-6.022,19.242-16.011c0-9.107-6.169-14.542-17.479-14.542c-4.555,0-7.639,0.293-9.254,0.734V130.743z"/>
	</g>
</g>
</svg>
