<?xml version="1.0" encoding="UTF-8"?>
<svg version="1.1" id="Layer_1" xmlns="http://www.w3.org/2000/svg" xmlns:xlink="http://www.w3.org/1999/xlink" x="0px" y="0px"
	 width="256px" height="256px" viewBox="0 0 256 256" enable-background="new 0 0 256 256" xml:space="preserve">
		<!--
		SATORI Studio — Admin Menu Icon
		Purpose: wp-admin SATORI Studio Settings icon
		Notes:
		- Glyphs use solid fill for WP contrast
		- Geometry matches canonical Studio logo
		- This file is admin-only; frontend uses canonical SVGs
		-->
<g transform="scale(0.87890625)">
	<path fill="#77787B" d="M0.24,291.36c0-78.16,0-156.32,0-234.48c0.066-0.167,0.172-0.331,0.194-0.504
		c0.344-2.772,0.535-5.572,1.037-8.314c2.532-13.842,8.984-25.411,20.202-34.103C31.08,6.669,41.895,2.764,53.554,0.964
		c1.588-0.245,3.178-0.482,4.767-0.723c77.68,0,155.359,0,233.04,0c0,76.525,0,153.052,0.001,229.577
		c0,0.519,0.027,1.038,0.04,1.556c-0.489,4.24-0.71,8.531-1.522,12.707c-2.319,11.93-7.721,22.278-16.839,30.442
		c-12.571,11.258-27.643,16.722-44.259,16.773c-75.78,0.232-151.562,0.102-227.344,0.1c-0.402,0-0.801-0.023-1.2-0.037L0.24,291.36z
		"/>
	<path fill="#BEBEBE" d="M20.187,271.44c0-0.693,0-1.172,0-1.649c0-69.358-0.008-138.716,0.013-208.074
		c0.002-6.603,0.935-13.065,3.661-19.16c3.973-8.879,10.833-14.681,19.685-18.303c6.653-2.722,13.577-4.079,20.785-4.077
		c68.438,0.016,136.876,0.009,205.313,0.009c0.551,0,1.102,0,1.797,0c0,0.539,0,0.965,0,1.391c0,69.438,0.011,138.876-0.017,208.313
		c-0.003,7.112-1.298,13.99-4.584,20.383c-4.438,8.629-11.621,14.082-20.496,17.487c-6.511,2.498-13.256,3.708-20.267,3.704
		c-68.038-0.04-136.076-0.024-204.114-0.024C21.419,271.44,20.869,271.44,20.187,271.44L20.187,271.44z"/>
	<!-- Primary Glyph 'S' paramters -->
	<path fill="#FFFFFF" d="M62.374,177.569c-0.264,1.033-0.582,2.261-0.889,3.489c-1.728,6.929-3.461,13.856-5.142,20.796
		c-0.071,0.294,0.278,0.884,0.582,1.04c1.442,0.74,2.901,1.469,4.418,2.037c9.528,3.568,19.398,5.431,29.558,5.757
		c5.89,0.187,11.767,0.021,17.599-0.944c5.09-0.844,10.076-2.072,14.844-4.078c9.368-3.94,16.919-9.949,21.524-19.2
		c3.702-7.438,4.622-15.309,3.543-23.513c-0.938-7.131-3.878-13.278-8.664-18.55c-4.512-4.972-10.024-8.684-16.073-11.439
		c-7-3.189-14.229-5.873-21.301-8.908c-3.823-1.641-7.558-3.491-10.489-6.607c-4.11-4.369-4.116-11.145,0.156-15.387
		c3.737-3.712,8.529-4.89,13.583-5.091c2.854-0.113,5.723,0.155,8.587,0.229c4.426,0.113,8.706,1.057,12.894,2.388
		c3.18,1.011,6.291,2.236,9.516,3.396c0.068-0.183,0.181-0.426,0.251-0.679c0.79-2.821,1.573-5.644,2.357-8.467
		c1.348-4.852,2.708-9.7,4.013-14.563c0.074-0.28-0.204-0.872-0.466-0.99c-1.543-0.696-3.11-1.357-4.709-1.916
		c-8.128-2.839-16.534-4.266-25.111-4.533c-4.127-0.128-8.274,0.139-12.4,0.41c-5.25,0.346-10.341,1.54-15.27,3.392
		c-7.781,2.926-14.61,7.25-19.668,13.966c-6.746,8.958-9.064,19.059-6.918,30.03c1.451,7.415,5.349,13.532,10.976,18.594
		c3.729,3.354,7.872,6.049,12.258,8.425c6.823,3.696,14.352,5.687,21.389,8.86c3.791,1.711,7.473,3.569,10.502,6.582
		c3.431,3.416,4.197,7.477,3.404,11.978c-0.737,4.189-3.442,6.913-7.083,8.82c-3.95,2.07-8.27,2.657-12.621,2.819
		c-2.766,0.103-5.553-0.211-8.322-0.437c-4.86-0.396-9.603-1.469-14.212-3C70.763,180.871,66.632,179.171,62.374,177.569z"/>
	<!-- Secondary Glyph 'L' paramters -->
	<path fill="#FFFFFF" d="M234.938,186.95c-15.243,0-30.342,0-45.562,0c0-30.912,0-61.723,0-92.555c-8.696,0-17.271,0-25.86,0
		c0,38.164,0,76.252,0,114.363c23.85,0,47.619,0,71.422,0C234.938,201.496,234.938,194.313,234.938,186.95z"/>
</g>
</svg>
