<svg xmlns="http://www.w3.org/2000/svg" width="256" height="256" viewBox="0 0 256 256" role="img" aria-label="SATORI Studio SP menu mark">
  <path fill="#000000" d="M 10.24 62.05 A 51.81 51.81 0 0 1 62.05 10.24 H 245.76 V 193.95 A 51.81 51.81 0 0 1 193.95 245.76 H 10.24 V 62.05 Z"/>
  <path fill="#8A8A8A" d="M 19.66 62.05 A 42.39 42.39 0 0 1 62.05 19.66 H 236.34 V 193.95 A 42.39 42.39 0 0 1 193.95 236.34 H 19.66 V 62.05 Z"/>
  <path fill="#FFFFFF" d="M 47.54 66.18 H 128.79 V 82.07 H 47.54 Z M 47.54 120.05 H 128.79 V 135.95 H 47.54 Z M 47.54 173.93 H 128.79 V 189.82 H 47.54 Z M 47.54 66.18 H 63.44 V 128 H 47.54 Z M 112.9 128 H 128.79 V 189.82 H 112.9 Z"/>
  <path fill="#FFFFFF" d="M 139.39 84.72 H 152.91 V 189.82 H 139.39 Z M 139.39 84.72 H 208.46 V 98.24 H 139.39 Z M 139.39 130.52 H 208.46 V 144.03 H 139.39 Z M 194.95 84.72 H 208.46 V 137.27 H 194.95 Z"/>
</svg>
